<?xml version="1.0" standalone="no"?>
<!DOCTYPE svg PUBLIC "-//W3C//DTD SVG 20010904//EN"
 "http://www.w3.org/TR/2001/REC-SVG-20010904/DTD/svg10.dtd">
<svg version="1.0" xmlns="http://www.w3.org/2000/svg"
 width="5000.000000pt" height="5000.000000pt" viewBox="0 0 5000.000000 5000.000000"
 preserveAspectRatio="xMidYMid meet">
<metadata>
Created by potrace 1.16, written by Peter Selinger 2001-2019
</metadata>
<g transform="translate(0.000000,5000.000000) scale(0.100000,-0.100000)"
fill="#000000" stroke="none">
<path d="M22895 48990 c-539 -39 -1103 -143 -1570 -290 -55 -17 -113 -35 -130
-40 -42 -12 -94 -30 -135 -48 -19 -8 -48 -18 -65 -23 -27 -7 -95 -32 -265 -98
-176 -69 -502 -229 -770 -379 -234 -130 -489 -286 -530 -324 -17 -15 -30 -24
-30 -20 0 4 -6 0 -13 -8 -7 -9 -67 -54 -135 -100 -67 -45 -147 -105 -177 -131
-31 -27 -120 -102 -198 -167 -269 -224 -601 -558 -822 -827 -68 -82 -140 -168
-159 -189 -20 -22 -76 -99 -127 -173 -50 -73 -102 -146 -116 -161 -45 -48
-255 -398 -390 -647 -108 -200 -267 -531 -314 -655 -61 -160 -101 -267 -104
-280 -1 -8 -10 -31 -18 -50 -95 -226 -245 -826 -311 -1240 -98 -621 -101
-1438 -6 -2077 48 -324 140 -733 230 -1018 17 -55 35 -113 40 -130 12 -42 30
-94 48 -135 8 -19 18 -48 23 -65 7 -30 48 -137 107 -285 114 -286 344 -728
568 -1088 46 -75 90 -146 97 -157 6 -11 21 -29 33 -41 12 -11 53 -67 92 -125
98 -146 129 -187 194 -260 31 -35 101 -118 155 -184 193 -233 522 -562 758
-758 126 -105 196 -164 247 -209 17 -15 90 -68 162 -117 72 -49 142 -100 156
-113 55 -52 484 -305 793 -468 154 -80 391 -191 482 -224 33 -13 71 -28 84
-35 13 -7 53 -23 90 -36 36 -13 118 -42 181 -65 63 -23 144 -50 180 -61 36
-11 101 -31 145 -44 440 -136 987 -235 1486 -271 l96 -7 37 -86 c157 -373 481
-680 863 -820 57 -21 64 -27 73 -60 5 -20 10 -43 10 -51 0 -8 11 -69 26 -135
14 -66 37 -173 50 -237 41 -196 72 -347 98 -468 13 -63 36 -171 50 -240 15
-69 37 -177 51 -240 13 -63 40 -194 60 -290 77 -373 87 -418 111 -525 l24
-109 -53 -56 c-242 -251 -383 -563 -418 -923 -6 -67 -16 -128 -22 -135 -6 -8
-25 -21 -43 -30 -60 -32 -172 -101 -306 -187 -18 -12 -79 -55 -128 -90 -19
-14 -49 -35 -67 -46 -17 -11 -34 -26 -37 -34 -3 -8 -10 -15 -17 -15 -6 0 -39
-23 -73 -50 -33 -28 -71 -58 -84 -68 -13 -9 -33 -27 -44 -39 -12 -13 -25 -23
-29 -23 -4 0 -28 -19 -53 -42 -24 -24 -64 -59 -87 -78 -70 -58 -439 -432 -439
-444 0 -3 -18 -24 -40 -46 -22 -22 -40 -44 -40 -49 0 -4 -10 -17 -22 -29 -13
-11 -31 -31 -40 -44 -10 -13 -39 -50 -66 -83 -27 -33 -51 -68 -55 -77 -3 -10
-11 -18 -16 -18 -5 0 -18 -15 -30 -32 -11 -18 -32 -49 -46 -68 -35 -49 -78
-110 -90 -128 -84 -130 -97 -152 -193 -319 -40 -71 -77 -135 -82 -143 -8 -13
-105 -209 -157 -315 -24 -49 -129 -305 -153 -371 l-22 -61 -91 -18 c-205 -39
-411 -127 -592 -253 -103 -72 -265 -225 -317 -299 -32 -48 -38 -49 -153 -32
-38 5 -227 30 -420 54 -192 25 -413 54 -490 65 -77 12 -315 43 -530 70 -214
27 -433 56 -486 65 -52 8 -293 40 -535 70 -241 31 -479 62 -529 70 -49 8 -287
40 -528 70 -241 31 -495 64 -565 75 -70 11 -308 42 -530 70 -221 28 -459 59
-530 70 -70 11 -320 44 -557 74 -368 47 -807 106 -910 121 -26 4 -35 15 -66
78 -55 110 -170 266 -271 367 -162 163 -357 283 -583 362 -93 32 -110 41 -113
60 -71 528 -199 1009 -382 1443 -66 158 -186 407 -251 523 -75 133 -102 180
-152 263 -38 61 -157 241 -195 293 -12 17 -32 46 -43 64 -12 17 -25 32 -30 32
-5 0 -13 8 -16 18 -4 9 -28 44 -55 77 -27 33 -56 70 -66 83 -9 13 -27 33 -39
44 -13 12 -23 25 -23 29 0 4 -18 26 -40 48 -22 22 -40 43 -40 47 0 3 -18 24
-40 45 -22 22 -40 41 -40 44 0 11 -394 395 -405 395 -3 0 -24 18 -46 40 -22
22 -44 40 -48 40 -4 0 -17 10 -29 23 -11 12 -31 30 -44 39 -13 10 -54 43 -93
73 -38 31 -79 63 -90 71 -44 33 -96 70 -130 94 -20 14 -49 35 -65 48 -15 12
-31 22 -34 22 -3 0 -31 17 -62 38 -225 148 -576 334 -847 449 -687 289 -1393
432 -2143 433 -1123 1 -2119 -298 -3086 -925 -18 -12 -79 -55 -128 -90 -19
-14 -49 -35 -67 -46 -17 -11 -34 -26 -37 -34 -3 -8 -10 -15 -17 -15 -6 0 -39
-23 -73 -50 -33 -28 -71 -58 -84 -68 -13 -9 -33 -27 -44 -39 -12 -13 -25 -23
-29 -23 -4 0 -28 -19 -53 -42 -24 -24 -64 -59 -87 -78 -70 -58 -439 -432 -439
-444 0 -3 -18 -24 -40 -46 -22 -22 -40 -44 -40 -49 0 -4 -10 -17 -22 -29 -13
-11 -31 -31 -40 -44 -10 -13 -39 -50 -66 -83 -27 -33 -51 -68 -55 -77 -3 -10
-11 -18 -16 -18 -5 0 -18 -15 -30 -32 -11 -18 -32 -49 -46 -68 -35 -49 -78
-110 -90 -128 -84 -130 -97 -152 -193 -319 -40 -71 -77 -135 -82 -143 -34 -56
-170 -342 -230 -483 -357 -849 -493 -1834 -385 -2787 46 -400 164 -885 313
-1285 68 -182 238 -556 302 -665 5 -8 11 -22 15 -30 3 -8 16 -31 28 -51 12
-20 42 -71 67 -113 66 -113 91 -154 165 -268 12 -18 55 -79 90 -128 14 -19 35
-49 46 -67 11 -17 26 -34 34 -37 8 -3 15 -10 15 -17 0 -6 23 -39 50 -73 28
-33 58 -71 68 -84 9 -13 27 -33 40 -44 12 -12 22 -25 22 -29 0 -4 18 -26 40
-48 22 -22 40 -43 40 -47 0 -3 18 -24 40 -45 22 -22 40 -41 40 -44 0 -11 394
-395 405 -395 3 0 24 -18 46 -40 22 -22 44 -40 48 -40 4 0 17 -10 29 -22 11
-13 31 -31 44 -40 13 -10 55 -43 93 -73 39 -31 79 -63 90 -71 44 -33 96 -70
130 -94 20 -14 49 -35 65 -47 15 -13 31 -23 34 -23 3 0 31 -17 62 -37 289
-192 716 -407 1057 -534 447 -167 894 -271 1391 -325 226 -25 751 -30 991 -10
905 76 1692 333 2479 811 28 17 100 63 158 100 18 12 79 55 128 90 19 14 49
35 67 46 17 11 34 26 37 34 3 8 10 15 17 15 6 0 39 23 73 50 33 28 71 58 84
68 13 9 33 27 44 40 12 12 25 22 29 22 5 0 27 18 49 40 22 22 43 40 46 40 10
0 404 385 404 395 0 3 18 22 40 44 22 21 40 41 40 44 0 4 18 25 40 47 22 22
40 44 40 48 0 6 9 17 68 76 12 13 22 27 22 31 0 4 20 30 43 58 24 29 47 60 50
70 4 9 11 17 16 17 5 0 18 15 30 33 11 17 32 48 46 67 35 49 78 110 90 128 78
121 96 150 183 299 92 159 82 138 168 314 l68 136 145 6 c381 17 720 156 977
401 57 54 97 85 112 86 30 0 472 -55 592 -74 52 -9 307 -43 565 -76 259 -33
515 -67 569 -75 54 -9 293 -40 530 -70 237 -30 490 -64 561 -74 72 -11 310
-43 530 -70 220 -28 459 -59 530 -70 72 -11 310 -43 530 -70 220 -28 459 -60
530 -71 72 -10 310 -42 530 -70 220 -27 460 -59 534 -70 73 -11 311 -43 529
-70 218 -28 399 -53 403 -57 3 -5 30 -44 59 -88 71 -106 261 -294 374 -370
115 -76 253 -145 365 -181 l87 -29 23 -109 c60 -288 173 -640 304 -953 47
-110 184 -398 217 -453 5 -8 11 -22 15 -30 3 -8 16 -31 28 -51 12 -20 42 -71
67 -113 66 -113 91 -154 165 -268 12 -18 55 -79 90 -128 14 -19 35 -50 46 -67
12 -18 25 -33 30 -33 5 0 13 -8 16 -17 4 -10 28 -45 55 -78 27 -33 56 -70 66
-83 9 -13 27 -33 40 -44 12 -12 22 -25 22 -29 0 -4 18 -26 40 -48 22 -22 40
-43 40 -47 0 -3 18 -24 40 -45 22 -22 40 -41 40 -44 0 -11 394 -395 405 -395
3 0 24 -18 46 -40 22 -22 44 -40 48 -40 4 0 17 -10 29 -22 11 -13 31 -31 44
-40 13 -10 55 -43 93 -73 39 -31 79 -63 90 -71 44 -33 96 -70 130 -94 20 -14
49 -35 65 -47 15 -13 31 -23 34 -23 3 0 31 -17 62 -37 64 -42 112 -72 165
-102 52 -29 56 -37 69 -141 32 -251 118 -473 266 -687 l64 -92 -111 -338 c-61
-186 -117 -354 -124 -373 -8 -19 -86 -255 -174 -525 -89 -269 -165 -496 -169
-504 -5 -8 -39 -25 -77 -38 -202 -68 -393 -190 -560 -357 -128 -128 -204 -232
-281 -382 l-44 -86 -122 -43 c-169 -59 -206 -74 -360 -149 -218 -107 -373
-201 -531 -323 -48 -37 -107 -81 -130 -98 -54 -38 -387 -370 -418 -417 -20
-29 -120 -158 -159 -205 -5 -7 -10 -15 -10 -18 0 -3 -27 -46 -60 -94 -76 -114
-115 -183 -199 -356 -154 -316 -254 -657 -303 -1035 -20 -163 -18 -642 5 -800
64 -441 195 -831 400 -1195 53 -93 193 -302 251 -374 28 -35 62 -80 75 -100
33 -48 408 -421 425 -421 7 0 22 -10 34 -23 48 -51 291 -218 427 -294 110 -62
339 -170 436 -206 327 -123 566 -176 964 -214 l79 -8 45 -60 c171 -226 444
-417 726 -508 98 -31 262 -66 319 -68 16 0 52 -48 149 -197 71 -108 185 -282
254 -387 68 -104 170 -260 225 -345 l100 -155 -22 -50 c-80 -181 -121 -324
-141 -485 -15 -126 -5 -348 21 -470 11 -52 23 -106 26 -120 4 -20 -6 -37 -48
-82 -29 -31 -69 -76 -88 -99 -19 -24 -47 -57 -61 -73 -25 -29 -207 -277 -239
-326 -8 -12 -27 -40 -42 -61 -16 -21 -28 -42 -28 -45 0 -4 -19 -36 -43 -73
-100 -152 -219 -381 -330 -631 -19 -43 -67 -164 -97 -245 -12 -33 -29 -76 -36
-95 -7 -19 -32 -98 -55 -175 -147 -501 -209 -924 -209 -1435 0 -363 31 -676
101 -1015 34 -162 125 -497 163 -595 7 -19 23 -62 36 -95 95 -258 247 -580
359 -765 11 -19 24 -42 28 -50 3 -8 16 -28 28 -45 12 -16 25 -37 29 -45 16
-35 88 -144 99 -148 4 -2 7 -8 7 -13 0 -15 230 -321 300 -399 8 -10 40 -46 70
-81 70 -81 355 -367 439 -439 35 -30 71 -62 81 -70 80 -72 384 -300 400 -300
6 0 10 -3 10 -7 1 -5 30 -26 66 -48 36 -22 89 -55 117 -74 29 -18 84 -50 122
-71 39 -21 97 -53 130 -72 73 -41 252 -128 390 -188 29 -13 160 -64 230 -90
33 -12 76 -29 95 -36 46 -18 280 -86 401 -118 242 -63 578 -116 864 -137 182
-13 672 -7 830 11 512 57 907 154 1375 339 82 33 161 68 320 145 139 67 338
177 385 211 17 13 46 31 65 42 49 26 124 76 128 86 2 4 8 7 13 7 15 0 323 232
399 300 10 8 46 40 81 70 127 110 404 393 516 529 15 19 42 50 59 70 49 57
234 310 234 320 0 5 3 11 8 13 10 4 81 112 98 148 4 8 17 28 28 45 12 16 26
39 32 50 11 21 29 53 95 170 101 181 229 466 310 695 126 356 213 743 259
1165 28 255 23 817 -11 1060 -5 39 -14 106 -20 150 -15 115 -65 366 -95 481
-32 124 -100 357 -118 404 -7 19 -24 62 -36 95 -80 216 -199 479 -290 640 -21
39 -49 88 -60 110 -28 54 -41 75 -66 110 -11 17 -24 37 -28 45 -17 36 -88 144
-98 148 -5 2 -8 8 -8 13 0 15 -230 321 -300 399 -8 10 -40 46 -70 81 -30 35
-127 136 -215 224 -145 145 -214 209 -314 292 -19 15 -50 42 -70 59 -59 50
-311 234 -320 234 -5 0 -11 3 -13 8 -4 10 -112 81 -148 98 -8 4 -28 17 -45 28
-16 12 -39 26 -50 32 -53 29 -103 57 -135 76 -73 43 -298 154 -445 218 -29 13
-160 64 -230 90 -33 12 -76 29 -95 36 -46 18 -280 86 -400 117 -599 155 -1309
190 -1945 96 -62 -9 -311 -55 -334 -61 -5 -2 -37 24 -72 57 -96 91 -148 130
-264 200 -170 102 -402 182 -583 201 l-67 7 -55 86 c-51 81 -218 336 -405 621
-91 138 -228 349 -238 366 -3 6 13 56 37 110 48 108 75 194 103 324 26 122 25
426 -1 567 l-19 102 35 43 c19 24 69 97 113 163 282 429 442 867 517 1415 20
147 17 642 -5 800 -52 369 -148 688 -298 995 -84 173 -125 246 -199 355 -31
47 -59 90 -61 97 -2 6 -35 50 -74 98 -38 48 -76 99 -84 113 -17 31 -377 393
-417 418 -16 10 -52 38 -80 62 -50 43 -52 46 -59 110 -27 261 -120 507 -273
727 l-70 100 48 140 c27 77 144 430 260 785 117 355 226 683 242 730 l29 85
82 29 c119 42 279 126 382 201 111 80 256 222 326 321 l53 74 136 0 c332 0
829 65 1195 156 568 142 1068 353 1589 669 28 17 100 63 158 100 18 12 79 55
128 90 19 14 49 35 67 46 17 11 34 26 37 34 3 8 10 15 17 15 6 0 39 23 73 50
33 28 71 58 84 68 13 9 33 27 44 40 12 12 25 22 29 22 5 0 27 18 49 40 22 22
43 40 46 40 10 0 404 385 404 395 0 3 18 22 40 44 22 21 40 41 40 44 0 4 18
25 40 47 22 22 40 44 40 48 0 6 9 17 68 76 12 13 22 27 22 31 0 4 20 30 43 58
24 29 47 60 50 70 4 9 11 17 16 17 5 0 18 15 30 33 11 17 32 48 46 67 35 49
78 110 90 128 39 61 83 130 100 158 25 42 143 243 155 267 6 9 14 25 20 35 46
84 173 352 217 457 234 553 367 1104 419 1724 20 248 15 748 -10 986 -75 695
-246 1287 -548 1900 -66 133 -82 165 -157 295 -17 30 -40 73 -52 95 l-20 40
57 85 c104 157 183 343 226 537 18 82 22 131 22 298 1 208 -7 273 -55 438 -11
38 -18 74 -16 81 3 7 61 81 129 165 67 85 132 165 143 180 38 51 250 318 364
460 64 79 136 169 161 201 52 67 138 177 213 271 28 37 124 157 212 267 88
109 196 246 240 302 44 56 114 144 155 195 66 81 131 163 432 545 37 47 88
110 113 140 73 90 186 232 250 314 33 43 170 217 305 386 135 169 292 367 350
440 58 73 139 175 180 226 41 51 102 127 135 169 113 145 365 462 456 574 25
31 97 122 160 202 63 80 175 222 249 315 124 154 174 218 268 337 43 55 126
159 269 339 65 80 144 179 175 220 32 40 162 204 289 363 128 160 249 313 270
340 62 81 125 160 294 371 153 191 195 244 295 373 25 32 82 103 127 158 l81
100 124 6 c301 15 558 100 798 264 52 36 111 81 131 100 l36 34 39 -15 c156
-62 533 -151 807 -190 293 -43 408 -50 732 -51 456 0 807 43 1235 150 141 36
410 121 477 151 17 8 36 14 42 14 6 0 19 4 29 10 9 5 58 26 107 46 97 38 212
91 285 128 76 39 212 112 265 142 28 15 59 32 70 38 11 6 34 21 52 34 17 12
33 22 36 22 4 0 92 55 161 102 113 77 351 257 406 308 9 8 46 40 81 70 88 76
360 348 445 445 38 44 74 85 79 91 63 72 236 304 320 429 172 255 349 594 467
890 181 454 296 941 339 1430 16 180 16 630 0 810 -64 737 -289 1456 -643
2058 -15 26 -28 50 -28 53 0 3 -10 20 -22 37 -13 18 -31 47 -41 66 -42 78
-283 412 -372 515 -160 186 -180 208 -317 344 -124 125 -192 187 -323 297 -26
22 -53 45 -59 51 -15 14 -343 254 -371 271 -11 7 -71 44 -133 83 -62 38 -115
70 -118 70 -2 0 -22 11 -43 24 -36 23 -135 77 -226 124 -22 12 -87 42 -145 68
-58 25 -124 54 -147 65 -24 10 -46 19 -50 19 -5 1 -26 9 -48 20 -22 11 -48 19
-57 20 -9 0 -19 4 -22 9 -3 4 -27 14 -53 21 -27 7 -52 16 -58 20 -9 7 -94 33
-240 76 -258 75 -527 130 -795 163 -464 57 -1110 32 -1545 -60 -56 -11 -97
-20 -200 -44 -116 -27 -445 -126 -520 -156 -38 -16 -74 -29 -78 -29 -5 0 -33
-11 -63 -25 -30 -14 -57 -25 -60 -25 -19 0 -350 -159 -459 -220 -38 -21 -88
-48 -110 -60 -46 -23 -68 -37 -110 -66 -16 -11 -37 -24 -45 -28 -37 -17 -144
-89 -148 -98 -2 -5 -8 -8 -13 -8 -9 0 -260 -182 -314 -229 -17 -14 -50 -41
-73 -60 -23 -18 -57 -47 -76 -65 -18 -17 -71 -65 -117 -106 -45 -41 -90 -84
-98 -94 -9 -10 -24 -26 -35 -35 -10 -9 -30 -29 -45 -45 -14 -16 -51 -55 -81
-87 -60 -62 -123 -134 -167 -188 -15 -19 -35 -42 -43 -51 -28 -29 -240 -320
-240 -329 0 -5 -3 -11 -7 -13 -10 -4 -82 -111 -99 -148 -4 -8 -17 -28 -28 -45
-28 -40 -44 -66 -56 -90 -5 -11 -28 -51 -49 -90 -69 -122 -241 -479 -241 -499
0 -3 -11 -30 -25 -60 -14 -30 -25 -60 -25 -65 0 -6 -5 -19 -10 -29 -12 -20
-38 -96 -86 -252 -156 -503 -224 -953 -224 -1481 0 -724 148 -1408 446 -2057
19 -41 34 -76 34 -78 0 -4 81 -155 163 -304 32 -57 185 -308 199 -325 5 -5 28
-37 52 -70 l44 -59 -18 -36 c-30 -59 -87 -249 -106 -350 -27 -148 -25 -393 5
-540 13 -63 34 -146 47 -184 22 -63 23 -71 9 -90 -19 -27 -94 -120 -217 -272
-92 -114 -162 -202 -293 -370 -33 -42 -112 -141 -175 -219 -113 -141 -191
-239 -320 -404 -36 -45 -86 -109 -112 -141 -72 -89 -301 -377 -365 -459 -32
-40 -85 -107 -118 -148 -33 -41 -71 -90 -85 -108 -14 -18 -63 -80 -110 -138
-47 -58 -120 -150 -162 -204 -176 -223 -414 -522 -496 -623 -21 -25 -56 -70
-79 -100 -63 -83 -128 -165 -228 -288 -49 -61 -125 -155 -167 -209 -42 -54
-150 -190 -240 -302 -90 -112 -183 -229 -208 -261 -25 -31 -74 -94 -110 -140
-36 -45 -85 -108 -110 -140 -25 -31 -115 -144 -201 -251 -85 -107 -201 -252
-257 -324 -56 -71 -164 -209 -242 -305 -144 -180 -240 -301 -358 -451 -37 -47
-114 -145 -172 -217 -58 -72 -132 -165 -165 -207 -73 -93 -348 -438 -384 -481
-14 -18 -62 -78 -106 -134 -82 -104 -280 -354 -389 -490 -34 -42 -81 -102
-106 -134 -25 -32 -76 -98 -115 -146 -38 -48 -98 -124 -133 -167 l-63 -80
-157 -6 c-232 -9 -419 -55 -617 -154 -99 -50 -260 -157 -315 -209 l-35 -33
-95 46 c-502 242 -1078 412 -1655 488 -155 21 -432 45 -516 45 l-65 0 -24 43
c-134 243 -371 471 -627 603 l-91 46 -11 62 c-7 33 -23 113 -37 176 -13 63
-35 169 -48 235 -66 322 -98 478 -151 725 -14 63 -41 192 -60 285 -20 94 -44
211 -55 260 -10 50 -33 158 -50 240 -17 83 -42 202 -55 265 -54 256 -53 249
-38 262 26 21 139 190 180 268 89 170 145 353 165 546 l12 112 45 22 c25 12
55 24 65 26 41 8 462 210 648 311 273 148 564 324 642 388 28 22 106 78 173
124 66 45 136 96 155 112 40 36 84 74 243 206 238 198 561 520 758 758 132
159 170 203 206 243 16 19 67 89 112 155 46 67 102 145 124 173 150 185 586
990 706 1304 12 30 37 96 56 145 19 50 38 104 42 120 5 17 15 46 23 65 18 40
36 92 48 135 5 17 23 75 40 130 106 339 208 815 250 1165 6 52 13 109 15 125
35 274 42 1056 12 1365 -51 519 -142 978 -286 1445 -45 147 -58 186 -77 231
-7 18 -27 74 -44 125 -18 52 -45 123 -60 159 -15 36 -36 88 -48 115 -80 198
-206 451 -373 747 -117 208 -277 468 -303 493 -12 11 -64 83 -116 159 -52 77
-118 165 -145 195 -28 31 -99 115 -157 186 -198 242 -542 588 -783 788 -125
104 -195 163 -247 209 -16 14 -85 64 -151 109 -67 46 -128 89 -135 96 -82 80
-674 424 -982 571 -226 107 -325 152 -347 156 -11 3 -36 12 -54 21 -18 10 -62
28 -98 41 -36 13 -97 35 -136 49 -38 14 -99 35 -135 47 -36 11 -89 29 -118 39
-28 10 -53 18 -55 17 -1 0 -33 9 -72 20 -396 120 -839 206 -1300 253 -167 17
-293 22 -615 24 -223 2 -459 -1 -525 -5z"/>
</g>
</svg>
